<svg width="254" height="256" viewBox="0 0 254 256" fill="none" xmlns="http://www.w3.org/2000/svg">
<mask id="mask0_2002_1310" style="mask-type:alpha" maskUnits="userSpaceOnUse" x="0" y="0" width="254" height="256">
<rect width="254" height="256" fill="#D9D9D9"/>
</mask>
<g mask="url(#mask0_2002_1310)">
<path d="M127 234.667C98.6013 210.311 77.3905 187.689 63.3676 166.8C49.3447 145.911 42.3333 126.578 42.3333 108.8C42.3333 82.1333 50.844 60.8888 67.8655 45.0666C84.8871 29.2444 104.599 21.3333 127 21.3333C149.401 21.3333 169.113 29.2444 186.134 45.0666C203.156 60.8888 211.667 82.1333 211.667 108.8L233.892 86.4L248.708 101.333L201.083 149.333L153.458 101.333L168.275 86.4L190.5 108.8C190.5 89.4222 184.37 73.5555 172.111 61.1999C159.852 48.8444 144.815 42.6666 127 42.6666C109.185 42.6666 94.1475 48.8444 81.8885 61.1999C69.6294 73.5555 63.4999 89.4222 63.4999 108.8C63.4999 121.422 68.7034 135.867 79.1103 152.133C89.5173 168.4 105.48 186.489 127 206.4C130.528 203.2 133.791 200.089 136.79 197.067L145.785 188C144.903 186.222 144.198 184.311 143.669 182.267C143.139 180.222 142.875 178.133 142.875 176C142.875 168.533 145.433 162.222 150.548 157.067C155.663 151.911 161.925 149.333 169.333 149.333C176.742 149.333 183.003 151.911 188.119 157.067C193.234 162.222 195.792 168.533 195.792 176C195.792 183.467 193.234 189.778 188.119 194.933C183.003 200.089 176.742 202.667 169.333 202.667C167.922 202.667 166.643 202.578 165.497 202.4C164.35 202.222 163.16 201.956 161.925 201.6C156.81 206.933 151.386 212.356 145.653 217.867C139.92 223.378 133.703 228.978 127 234.667Z" fill="white"/>
</g>
</svg>
