<svg width="73" height="64" viewBox="0 0 73 64" fill="none" xmlns="http://www.w3.org/2000/svg">
<path d="M37.0833 15.3128H7.41667C5.44964 15.3128 3.56319 16.0942 2.17229 17.4851C0.781396 18.876 0 20.7625 0 22.7295V37.5628C0 39.5299 0.781396 41.4163 2.17229 42.8072C3.56319 44.1981 5.44964 44.9795 7.41667 44.9795H11.125V59.8128C11.125 60.7963 11.5157 61.7396 12.2111 62.435C12.9066 63.1305 13.8498 63.5212 14.8333 63.5212H22.25C23.2335 63.5212 24.1767 63.1305 24.8722 62.435C25.5676 61.7396 25.9583 60.7963 25.9583 59.8128V44.9795H37.0833L55.625 59.8128V0.479492L37.0833 15.3128ZM72.3125 30.1462C72.3125 36.4874 68.7525 42.2353 63.0417 44.9795V15.3128C68.7154 18.0941 72.3125 23.842 72.3125 30.1462Z" fill="white"/>
</svg>
